<svg width="52" height="52" viewBox="0 0 52 52" fill="none" xmlns="http://www.w3.org/2000/svg">
<path d="M25.834 0.666004C11.839 0.757721 0.574371 12.171 0.666088 26.166C0.757804 40.1609 12.1711 51.4256 26.166 51.3339C40.161 51.2422 51.4257 39.8289 51.334 25.8339C51.2422 11.839 39.8289 0.574288 25.834 0.666004ZM40.7288 28.7638C40.7332 29.438 40.1852 29.9933 39.511 29.9977L30.1129 30.0593L30.1745 39.4574C30.1789 40.1316 29.6309 40.6868 28.9567 40.6912L23.2361 40.7287C22.5619 40.7331 22.0067 40.1851 22.0023 39.5109L21.9407 30.1128L12.5426 30.1744C11.8684 30.1788 11.3132 29.6308 11.3087 28.9566L11.2713 23.2361C11.2668 22.5618 11.8148 22.0066 12.4891 22.0022L21.8871 21.9406L21.8255 12.5425C21.8211 11.8683 22.3691 11.3131 23.0433 11.3087L28.7639 11.2712C29.4381 11.2667 29.9934 11.8148 29.9978 12.489L30.0594 21.887L39.4574 21.8255C40.1316 21.821 40.6869 22.369 40.6913 23.0433L40.7288 28.7638Z" fill="black"/>
</svg>
