<svg width="21" height="21" viewBox="0 0 21 21" fill="none" xmlns="http://www.w3.org/2000/svg">
<circle cx="10.5" cy="10.5" r="10.5" fill="#D9D9D9"/>
<g clip-path="url(#clip0_57_2011)">
<path d="M9.92191 17.6974C5.66514 11.5263 4.875 10.893 4.875 8.625C4.875 5.51839 7.39339 3 10.5 3C13.6066 3 16.125 5.51839 16.125 8.625C16.125 10.893 15.3349 11.5263 11.0781 17.6974C10.7987 18.1009 10.2012 18.1009 9.92191 17.6974ZM10.5 10.9688C11.7944 10.9688 12.8438 9.91942 12.8438 8.625C12.8438 7.33058 11.7944 6.28125 10.5 6.28125C9.20558 6.28125 8.15625 7.33058 8.15625 8.625C8.15625 9.91942 9.20558 10.9688 10.5 10.9688Z" fill="black"/>
</g>
<defs>
<clipPath id="clip0_57_2011">
<rect width="15" height="15" fill="white" transform="translate(3 3)"/>
</clipPath>
</defs>
</svg>
