<svg width="40" height="40" viewBox="0 0 40 40" fill="none" xmlns="http://www.w3.org/2000/svg">
<path d="M38.8586 28.2659L30.1086 24.5159C29.7348 24.3566 29.3194 24.323 28.9249 24.4202C28.5303 24.5175 28.1781 24.7402 27.9211 25.055L24.0461 29.7893C17.9646 26.922 13.0705 22.0278 10.2031 15.9464L14.9375 12.0714C15.2529 11.8149 15.4761 11.4626 15.5734 11.0679C15.6706 10.6732 15.6366 10.2575 15.4766 9.88386L11.7266 1.13386C11.5509 0.731056 11.2401 0.402179 10.8479 0.203939C10.4557 0.00569934 10.0066 -0.0494769 9.57812 0.0479244L1.45312 1.92292C1.03998 2.01833 0.671363 2.25095 0.407449 2.58283C0.143535 2.91471 -9.51727e-05 3.32625 4.73141e-08 3.75027C4.73141e-08 23.7893 16.2422 40.0003 36.25 40.0003C36.6742 40.0005 37.0859 39.857 37.4179 39.5931C37.75 39.3291 37.9827 38.9604 38.0781 38.5471L39.9531 30.4221C40.0499 29.9915 39.9936 29.5407 39.7938 29.1471C39.594 28.7536 39.2633 28.4419 38.8586 28.2659Z" fill="white"/>
</svg>
