<svg width="21" height="21" viewBox="0 0 21 21" fill="none" xmlns="http://www.w3.org/2000/svg">
<circle cx="10.5" cy="10.5" r="10.5" fill="#D9D9D9"/>
<path d="M16.375 11.9062C16.375 15.2725 13.8293 18 10.6875 18C7.5457 18 5 15.2725 5 11.9062C5 8.85938 7.08633 6.33398 9.8125 5.88574V4.875H9.04688C8.86641 4.875 8.71875 4.7168 8.71875 4.52344V3.35156C8.71875 3.1582 8.86641 3 9.04688 3H12.3281C12.5086 3 12.6562 3.1582 12.6562 3.35156V4.52344C12.6562 4.7168 12.5086 4.875 12.3281 4.875H11.5625V5.88574C12.5879 6.05566 13.523 6.51855 14.2887 7.19238L15.0406 6.38672C15.1691 6.24902 15.377 6.24902 15.5055 6.38672L16.2793 7.21582C16.4078 7.35352 16.4078 7.57617 16.2793 7.71387L15.4754 8.5752L15.459 8.59277C16.0387 9.54199 16.375 10.6816 16.375 11.9062ZM11.5625 12.9609V8.52246C11.5625 8.3291 11.4148 8.1709 11.2344 8.1709H10.1406C9.96016 8.1709 9.8125 8.3291 9.8125 8.52246V12.9609C9.8125 13.1543 9.96016 13.3125 10.1406 13.3125H11.2344C11.4148 13.3125 11.5625 13.1543 11.5625 12.9609Z" fill="black"/>
</svg>
