<svg width="800" height="600" xmlns="http://www.w3.org/2000/svg">
 <title>phone-solid</title>

 <g>
  <title>Layer 1</title>
  <g>
   <!--!Font Awesome Free 6.7.1 by @fontawesome - https://fontawesome.com License - https://fontawesome.com/license/free Copyright 2024 Fonticons, Inc.-->
   <path fill="#ffffff" d="m308.88871,67.61126c-7.7,-18.6 -28,-28.5 -47.4,-23.2l-88,24c-17.4,4.8 -29.5,20.6 -29.5,38.6c0,247.4 200.6,448 448,448c18,0 33.8,-12.1 38.6,-29.5l24,-88c5.3,-19.4 -4.6,-39.7 -23.2,-47.4l-96,-40c-16.3,-6.8 -35.2,-2.1 -46.3,11.6l-40.4,49.3c-70.4,-33.3 -127.4,-90.3 -160.7,-160.7l49.3,-40.3c13.7,-11.2 18.4,-30 11.6,-46.3l-40,-96l0,-0.1z"/>
  </g>
 </g>
</svg>